# xmcd CD database file generated by OrangeCD 5.2
#
# Track frame offsets:
#	150
#	10512
#	32617
#	44425
#	58871
#	70064
#	83565
#	96169
#	105774
#	118911
#	131151
#	145951
#	163039
#	173267
#	188655
#	200343
#
# Disc length: 2913 seconds
#
# Revision: 0
# Processed by: cddbd v1.5.2PL0 Copyright (c) Steve Scherf et al.
# Submitted via: OrangeCD 5.2
#
DISCID=ca0b5f10
DTITLE=Rob Rio - Boogie Woogie Gold
DYEAR=1900
DGENRE=Blues
TTITLE0=Bumble Boogie
TTITLE1=Saturday Nite Special
TTITLE2=Milk Milk Stomp
TTITLE3=Killin' Time
TTITLE4=Rio a la Yancy
TTITLE5=Cuttin' The Boogie
TTITLE6=Spann Salad
TTITLE7=Kaycee Boogie
TTITLE8=Swanee Boogie
TTITLE9=Honky Tonk Train
TTITLE10=Dive Bomber
TTITLE11=After Hours
TTITLE12=Bob Boogie
TTITLE13=Pacifica Grand Boogie Woogie
TTITLE14=L.A. Earthquake Boogie
TTITLE15=Boogie Woogie Stomp
EXTD=
EXTT0=
EXTT1=
EXTT2=
EXTT3=
EXTT4=
EXTT5=
EXTT6=
EXTT7=
EXTT8=
EXTT9=
EXTT10=
EXTT11=
EXTT12=
EXTT13=
EXTT14=
EXTT15=
PLAYORDER=
